<svg xmlns="http://www.w3.org/2000/svg" width="97" height="93" viewBox="0 0 97 93"><g><g><g><path fill="#4d4d4d" d="M8.659 83.618h40.13V80.53H8.659a4.63 4.63 0 0 1-4.63-4.63V7.987a4.63 4.63 0 0 1 4.63-4.63H76.57a4.63 4.63 0 0 1 4.63 4.63v35.5h3.088v-35.5A7.726 7.726 0 0 0 76.57.27H8.659A7.727 7.727 0 0 0 .942 7.987V75.9a7.728 7.728 0 0 0 7.717 7.718z"/></g><g><path fill="#4d4d4d" d="M7.116 6.445h3.086V9.53H7.116z"/></g><g><path fill="#4d4d4d" d="M13.29 6.445h3.087V9.53h-3.088z"/></g><g><path fill="#4d4d4d" d="M19.463 6.445h3.087V9.53h-3.087z"/></g><g><path fill="#4d4d4d" d="M7.116 12.618h70.999v3.087H7.116z"/></g><g><path fill="#4d4d4d" d="M14.832 34.226a4.63 4.63 0 0 1 0-9.26c.689.002 1.366.16 1.984.462l-3.074 3.075 2.182 2.183L19 27.613c.303.617.46 1.295.463 1.983a4.63 4.63 0 0 1-4.63 4.63zm8.17-14.982l-3.92 3.92a7.74 7.74 0 1 0 2.182 2.183l3.92-3.92z"/></g><g><path fill="#4d4d4d" d="M27.18 24.966H53.42v3.086H27.18z"/></g><g><path fill="#4d4d4d" d="M27.18 31.14h10.805v3.086H27.18z"/></g><g><path fill="#4d4d4d" d="M41.072 31.14H62.68v3.086H41.072z"/></g><g><path fill="#4d4d4d" d="M56.506 24.966h15.435v3.086H56.506z"/></g><g><path fill="#4d4d4d" d="M14.832 52.748a4.63 4.63 0 0 1 0-9.261 4.553 4.553 0 0 1 1.984.463l-3.074 3.075 2.182 2.182L19 46.134c.303.618.46 1.295.463 1.983a4.63 4.63 0 0 1-4.63 4.63zm8.17-14.983l-3.92 3.92a7.74 7.74 0 1 0 2.182 2.184l3.92-3.92z"/></g><g><path fill="#4d4d4d" d="M27.18 43.487H53.42v3.087H27.18z"/></g><g><path fill="#4d4d4d" d="M27.18 49.661h10.805v3.087H27.18z"/></g><g><path fill="#4d4d4d" d="M41.072 49.661h12.347v3.087H41.072z"/></g><g><path fill="#4d4d4d" d="M56.506 43.487h6.173v3.087h-6.173z"/></g><g><path fill="#4d4d4d" d="M14.832 71.27a4.63 4.63 0 0 1 0-9.261 4.54 4.54 0 0 1 1.984.462l-3.074 3.076 2.182 2.182L19 64.655c.303.618.46 1.296.463 1.984a4.63 4.63 0 0 1-4.63 4.63zm8.17-14.983l-3.92 3.92a7.74 7.74 0 1 0 2.182 2.183l3.92-3.92z"/></g><g><path fill="#4d4d4d" d="M27.18 62.008h20.065v3.088H27.181z"/></g><g><path fill="#4d4d4d" d="M27.18 68.182h10.805v3.087H27.18z"/></g><g><path fill="#4d4d4d" d="M41.072 68.182h6.173v3.087h-6.173z"/></g><g><path fill="#4d4d4d" d="M73.485 49.661c11.08 0 20.065 8.983 20.065 20.065s-8.985 20.065-20.065 20.065c-11.082 0-20.066-8.983-20.066-20.065.013-11.076 8.989-20.053 20.066-20.065zm0 43.217c12.787 0 23.151-10.366 23.151-23.152 0-12.787-10.364-23.152-23.151-23.152-12.787 0-23.153 10.365-23.153 23.152.015 12.78 10.372 23.137 23.153 23.152z"/></g><g><path fill="#4d4d4d" d="M64.07 70.579l-2.763 1.38 3.086 6.174a1.543 1.543 0 0 0 1.374.854c.409 0 .801-.163 1.092-.453l18.52-18.52-2.182-2.184L66.19 74.838z"/></g></g></g></svg>