<svg xmlns="http://www.w3.org/2000/svg" width="109" height="79" viewBox="0 0 109 79"><g><g><g><path fill="#4d4d4d" d="M19.304 44.631l-5.306-3.063L26.65 19.65l5.306 3.064zm17.823-18.664c-2.468 3.853-.451 8.93 3.901 10.095a6.656 6.656 0 0 0 5.084-.669l9.9-5.715a.419.419 0 0 1 .419 0l4.958 2.863a1.589 1.589 0 0 0 1.589-2.751l-4.958-2.863a3.605 3.605 0 0 0-3.595 0l-9.9 5.715a3.527 3.527 0 0 1-4.814-1.29 3.528 3.528 0 0 1 1.29-4.813l10.438-6.027a7.078 7.078 0 0 1 7.058 0l7.007 4.045a10.136 10.136 0 0 0 9.563.292l10.324 17.88-15.795-9.118a1.588 1.588 0 1 0-1.589 2.751L86.813 47.22c1.688.974 2.386 3.26 1.54 5.012a3.527 3.527 0 0 1-4.79 1.249c-.243-.162 1.9 1.097-11.34-6.547a1.588 1.588 0 1 0-1.588 2.751l11.495 6.637c1.554.897 2.189 3.01 1.378 4.63-.924 1.85-3.11 2.507-4.901 1.473l-3.872-2.235-.003-.002-7.62-4.4a1.588 1.588 0 1 0-1.589 2.752l7.62 4.4a3.54 3.54 0 0 1 1.324 4.753c-.955 1.73-3.235 2.28-4.946 1.292L62 64.643a1.588 1.588 0 1 0-1.589 2.751l2.738 1.581a3.54 3.54 0 0 1 1.324 4.754c-.97 1.753-3.26 2.265-4.947 1.291l-3.25-1.876a6.7 6.7 0 0 0-.205-6.313c-1.648-2.854-5.094-4.038-8.09-2.948-.147-3.906-3.685-6.984-7.711-6.368a6.688 6.688 0 0 0-4.747-7.171 6.7 6.7 0 0 0-.164-6.394 6.708 6.708 0 0 0-9.153-2.453L24.07 42.73l10.318-17.87c.873.465 1.792.836 2.739 1.107zM82.81 19.65L89.824 31.8a1.588 1.588 0 1 0 2.751-1.589l-7.783-13.48 20.985-12.116v32.774l-6.793 3.922-2.629-4.553a1.588 1.588 0 1 0-2.751 1.589l1.859 3.22-5.306 3.064-12.653-21.916zM52.03 73.233l-1.382.798a3.528 3.528 0 0 1-4.814-1.29 3.528 3.528 0 0 1 1.29-4.813l1.382-.798a3.528 3.528 0 0 1 4.814 1.29 3.528 3.528 0 0 1-1.29 4.813zM35.794 67.31a3.528 3.528 0 0 1 1.29-4.813l2.436-1.407a3.5 3.5 0 0 1 2.674-.352 3.522 3.522 0 0 1 2.491 4.316 3.503 3.503 0 0 1-1.642 2.14L40.607 68.6a3.528 3.528 0 0 1-4.813-1.29zm-5.792-5.585a3.522 3.522 0 0 1-2.492-4.315 3.5 3.5 0 0 1 1.642-2.14l2.704-1.56A3.527 3.527 0 0 1 36.665 55a3.528 3.528 0 0 1-1.29 4.813l-2.7 1.56a3.5 3.5 0 0 1-2.673.351zm-8.043-10.04a3.528 3.528 0 0 1 1.29-4.812l4.545-2.625a3.528 3.528 0 0 1 4.813 1.29 3.528 3.528 0 0 1-1.29 4.813l-4.544 2.624a3.528 3.528 0 0 1-4.814-1.29zM1.455 39.772l8.395 4.847a2.066 2.066 0 0 0 2.5-.333l6.271 3.62c-1.293 4.107 1.547 8.32 5.818 8.693-.942 3.534 1.13 7.228 4.74 8.196.971.26 1.992.306 2.999.112-.386 3.941 2.721 7.342 6.678 7.342a6.661 6.661 0 0 0 3.34-.897c.19 3.521 3.11 6.327 6.7 6.327a6.66 6.66 0 0 0 3.34-.896c1.447-.835 1.59-.905 1.959-1.171l3.742 2.16a6.907 6.907 0 0 0 5.273.663 6.593 6.593 0 0 0 4.865-6.618c3.19 1.74 7.36.696 9.173-2.587a6.63 6.63 0 0 0 .817-3.558 6.593 6.593 0 0 0 4.23.14c3.611-1.084 5.716-5.048 4.304-8.807a6.688 6.688 0 0 0 4.574-3.309c.962-1.923.924-4.152.084-6.03l5.853-3.38c.637.643 1.66.818 2.5.333l8.395-4.847c.585-.338.949-.967.949-1.643V2.398c0-1.457-1.583-2.372-2.846-1.643L82.24 14.535a2.067 2.067 0 0 0-.962 2.33l-6.327 3.654c-.512.296-.85.779-.976 1.313a6.95 6.95 0 0 1-6.884-.026l-7.007-4.046a10.264 10.264 0 0 0-10.235 0l-9.603 5.545c-1.669-.11-3.238-.594-4.763-1.473a2.061 2.061 0 0 0-.977-1.313l-6.327-3.653a2.067 2.067 0 0 0-.961-2.332l-7.24-4.18a1.588 1.588 0 1 0-1.59 2.752l6.279 3.624-14.19 24.581-6.794-3.922V4.615l8.152 4.706a1.589 1.589 0 0 0 1.588-2.751L3.352.755C2.091.027.507.94.507 2.398v35.73c0 .676.363 1.305.948 1.643z"/></g></g></g></svg>