<svg xmlns="http://www.w3.org/2000/svg" width="93" height="93" viewBox="0 0 93 93"><g><g><g><path fill="#4d4d4d" d="M87.211 46.574c0 22.34-18.175 40.516-40.516 40.516-22.34 0-40.516-18.175-40.516-40.516 0-22.34 18.175-40.516 40.516-40.516 22.34 0 40.516 18.175 40.516 40.516zm-7.774 32.742C88.183 70.57 93 58.942 93 46.574c0-12.368-4.816-23.996-13.562-32.742C70.691 5.086 59.063.27 46.695.27c-12.368 0-23.997 4.816-32.742 13.562C5.207 22.578.39 34.206.39 46.574c0 12.368 4.816 23.997 13.562 32.742 8.746 8.746 20.374 13.562 32.742 13.562 12.368 0 23.997-4.816 32.742-13.562z"/></g><g><path fill="#4d4d4d" d="M46.695 43.68c-3.99 0-7.235-3.245-7.235-7.235s3.246-7.235 7.235-7.235c3.99 0 7.235 3.246 7.235 7.235a2.894 2.894 0 0 0 5.788 0c0-6.186-4.337-11.375-10.129-12.695v-3.222a2.894 2.894 0 0 0-5.788 0v3.222c-5.792 1.32-10.129 6.509-10.129 12.695 0 7.181 5.842 13.023 13.023 13.023 3.99 0 7.235 3.246 7.235 7.235 0 3.99-3.246 7.235-7.235 7.235-3.99 0-7.235-3.245-7.235-7.235a2.894 2.894 0 0 0-5.788 0c0 6.186 4.337 11.375 10.129 12.695v3.222a2.894 2.894 0 0 0 5.788 0v-3.222c5.792-1.32 10.129-6.509 10.129-12.695 0-7.18-5.842-13.023-13.023-13.023z"/></g></g></g></svg>