<svg xmlns="http://www.w3.org/2000/svg" width="331" height="110" viewBox="0 0 331 110"><g><g><g><path fill="#9c0" d="M54.953 0a54.903 54.903 0 0 1 18.262 3.195h-8.653c-8.722 0-15.078 1.992-19.066 5.98-3.906 3.907-5.859 10.219-5.859 18.942v39.879c0 8.14 1.91 14.121 5.734 17.941 3.82 3.824 9.801 5.734 17.945 5.734 9.391 0 20.668-.496 33.793-1.48a54.958 54.958 0 0 1-42.156 19.715 54.962 54.962 0 0 1-38.859-16.094A54.957 54.957 0 0 1 0 54.953C0 24.605 24.601 0 54.953 0zm42.91 20.64a54.945 54.945 0 0 1 12.043 34.313 54.906 54.906 0 0 1-2.933 17.558c-4.168.262-8.137.512-11.133.715-3.574.25-6.52.418-8.848.5l-6.73.25c-2.243.082-4.403.168-6.481.25h-5.73c-1.746 0-3.2-.539-4.364-1.621-1.078-1.164-1.617-2.699-1.617-4.609V28.117c0-4.985 2.492-7.477 7.477-7.477z"/></g><g><path fill="#e6e6e6" d="M112.769 41.203h12.09l10.5 21.636 10.5-21.636h12.09l-16.863 32.773v11.77h-11.453v-11.77z"/></g><g><path fill="#e6e6e6" d="M160.492 41.203h26.723c4.457 0 7.679 1.019 9.676 3.054 2.035 1.996 3.054 5.219 3.054 9.672v6.364c0 4.457-1.019 7.699-3.054 9.738-1.997 1.992-5.219 2.988-9.676 2.988h-15.27v12.727h-11.453zm27.996 12.726c0-2.543-1.273-3.816-3.816-3.816h-12.727v14h12.727c2.543 0 3.816-1.274 3.816-3.82z"/></g><g><path fill="#e6e6e6" d="M205.73 41.203h26.727c4.453 0 7.68 1.019 9.672 3.054 2.035 1.996 3.055 5.219 3.055 9.672v5.727c0 3.523-.594 6.258-1.782 8.211-1.144 1.949-2.992 3.246-5.535 3.883l7.953 13.996h-12.41l-7.316-13.364h-8.91v13.364H205.73zm28 12.726c0-2.543-1.273-3.816-3.82-3.816h-12.726v13.363h12.726c2.547 0 3.82-1.273 3.82-3.82z"/></g><g><path fill="#e6e6e6" d="M246.5 41.203h12.09l10.5 21.636 10.5-21.636h12.09l-16.864 32.773v11.77h-11.453v-11.77z"/></g><g><path fill="#e6e6e6" d="M292.762 76.519c11.621.637 19.492.957 23.605.957.977 0 1.742-.277 2.293-.828.594-.594.891-1.379.891-2.355v-5.727h-14.637c-4.453 0-7.699-.996-9.734-2.992-1.996-2.035-2.993-5.281-2.993-9.735v-1.91c0-4.453.997-7.676 2.993-9.672 2.035-2.035 5.281-3.054 9.734-3.054h22.336v8.91h-19.789c-2.547 0-3.82 1.273-3.82 3.816v1.274c0 2.547 1.273 3.816 3.82 3.816h11.453c4.156 0 7.211.977 9.164 2.93 1.949 1.949 2.926 5.004 2.926 9.164v3.18c0 4.156-.977 7.21-2.926 9.164-1.953 1.949-5.008 2.925-9.164 2.925-2.164 0-4.453-.043-6.871-.125l-5.856-.254a404.471 404.471 0 0 1-13.425-.894z"/></g><g><path fill="#e6e6e6" d="M198.695 106.054h2.141V93.96l8.015 12.094h1.852l8.047-12.094v12.094h2.141V92.472h-3.329l-7.757 11.559-7.782-11.559h-3.328z"/></g><g><path fill="#e6e6e6" d="M232.609 92.472h2.403l9.199 13.582h-2.344l-3.094-4.578h-9.957l-3.125 4.578h-2.257zm5.325 7.774l-4.11-6.231-4.195 6.231z"/></g><g><path fill="#e6e6e6" d="M245.176 102.25c.203 2.445 2.836 4.043 6.683 4.043 3.703 0 6.453-1.708 6.453-4.024 0-1.195-.781-2.262-2.14-2.906-.867-.403-1.766-.66-3.965-1.082-1.938-.367-2.574-.535-3.156-.848-.606-.348-1.012-.953-1.012-1.578 0-1.363 1.562-2.371 3.703-2.371 2.172 0 3.676.953 3.82 2.426h2.231c-.086-2.207-2.488-3.676-5.992-3.676-3.442 0-5.93 1.543-5.93 3.656 0 .938.547 1.84 1.504 2.406.84.516 1.504.719 3.992 1.196 1.68.332 2.606.59 3.301.902.953.422 1.476 1.121 1.476 1.949 0 1.563-1.796 2.7-4.226 2.7-1.36 0-2.664-.387-3.445-1.012-.606-.477-.868-.934-1.012-1.781z"/></g><g><path fill="#e6e6e6" d="M259.441 106.054h13.227v-1.23h-10.793l10.476-11.121v-1.231h-12.589v1.231h10.187l-10.508 11.121z"/></g><g><path fill="#e6e6e6" d="M280.32 106.054h2.145v-4.539l7.465-9.043h-2.344l-6.223 7.61-6.078-7.61h-2.371l7.406 9.043z"/></g><g><path fill="#e6e6e6" d="M292.18 106.054h2.144V94.109l12.731 11.945h2.14V92.472h-2.14v11.266l-11.981-11.266h-2.894z"/></g><g><path fill="#e6e6e6" d="M318.871 106.054h2.141v-4.539l7.464-9.043h-2.343l-6.223 7.61-6.074-7.61h-2.375l7.41 9.043z"/></g></g></g></svg>